<?xml version="1.0" encoding="UTF-8" standalone="no"?>
<!-- Created with Inkscape (http://www.inkscape.org/) -->

<svg
   xmlns:dc="http://purl.org/dc/elements/1.1/"
   xmlns:cc="http://creativecommons.org/ns#"
   xmlns:rdf="http://www.w3.org/1999/02/22-rdf-syntax-ns#"
   xmlns:svg="http://www.w3.org/2000/svg"
   xmlns="http://www.w3.org/2000/svg"
   xmlns:sodipodi="http://sodipodi.sourceforge.net/DTD/sodipodi-0.dtd"
   xmlns:inkscape="http://www.inkscape.org/namespaces/inkscape"
   width="247.88631mm"
   height="126.55793mm"
   viewBox="0 0 247.88631 126.55793"
   version="1.1"
   id="svg8"
   inkscape:version="0.92.1 r15371"
   sodipodi:docname="bg.svg">
  <defs
     id="defs2" />
  <sodipodi:namedview
     id="base"
     pagecolor="#ffffff"
     bordercolor="#666666"
     borderopacity="1.0"
     inkscape:pageopacity="0.0"
     inkscape:pageshadow="2"
     inkscape:zoom="0.7"
     inkscape:cx="532.28571"
     inkscape:cy="-105.09407"
     inkscape:document-units="mm"
     inkscape:current-layer="layer1"
     showgrid="false"
     inkscape:window-width="1842"
     inkscape:window-height="1051"
     inkscape:window-x="69"
     inkscape:window-y="-9"
     inkscape:window-maximized="1"
     fit-margin-top="0"
     fit-margin-left="0"
     fit-margin-right="0"
     fit-margin-bottom="0" />
  <metadata
     id="metadata5">
    <rdf:RDF>
      <cc:Work
         rdf:about="">
        <dc:format>image/svg+xml</dc:format>
        <dc:type
           rdf:resource="http://purl.org/dc/dcmitype/StillImage" />
        <dc:title></dc:title>
      </cc:Work>
    </rdf:RDF>
  </metadata>
  <g
     inkscape:label="Layer 1"
     inkscape:groupmode="layer"
     id="layer1"
     transform="translate(21.846575,-3.6014519)">
    <path
       style="fill:none;stroke:#000000;stroke-width:0.26458332px;stroke-linecap:butt;stroke-linejoin:miter;stroke-opacity:1"
       d="M -1.5119047,4.8244045 C -0.88194442,4.9503967 -0.21251565,4.9493127 0.37797618,5.2023808 0.70552214,5.3427576 0.86336036,5.7264175 1.1339286,5.958333 1.7464534,6.4833544 2.3155735,7.0839274 3.0238094,7.4702378 3.723355,7.8518082 4.5412453,7.9581826 5.2916666,8.2261902 6.3054298,8.5882484 7.3317792,8.9229201 8.315476,9.3601187 15.421484,12.913123 8.7522956,9.7093171 15.875,12.761904 c 2.798554,1.199381 5.50934,2.598231 8.315476,3.779762 3.922244,1.470841 2.034371,0.709884 5.669642,2.267857 0.516631,0.221414 3.701481,1.611803 4.535715,1.889881 0.492821,0.164274 1.034428,0.173344 1.511906,0.377977 0.417539,0.178946 0.712147,0.58724 1.133927,0.755952 0.147185,0.05887 1.226701,0 1.511906,0 0.881944,0 1.763887,0 2.645833,0 0.125992,0 0.251984,0 0.377976,0 0.125992,0 0.288885,0.08909 0.377976,0 0.08909,-0.08909 -0.06989,-0.273145 0,-0.377976 1.359387,-2.039081 0.117647,0.260328 1.511903,-1.133929 1.394518,-1.394516 0.03224,-1.029429 1.889882,-2.267857 0.331507,-0.221005 0.788001,-0.180303 1.13393,-0.377976 0.546957,-0.312548 0.971717,-0.809817 1.511903,-1.133929 0.724736,-0.434841 1.551146,-0.685983 2.267858,-1.133928 0.302191,-0.18887 0.459443,-0.55828 0.755951,-0.755953 1.789946,-1.193297 1.522974,-0.324203 3.401788,-1.889881 0.216426,-0.180357 0.178763,-0.556741 0.377976,-0.755952 1.417981,-1.417982 0.696828,-0.23914 1.889879,-1.133928 0.984506,-0.73838 0.414017,-0.767967 1.511906,-1.133929 0.119525,-0.039842 0.265284,0.056345 0.377975,0 0.15937,-0.079684 0.218607,-0.2982917 0.377976,-0.3779763 0.112692,-0.056345 0.288888,0.08909 0.377976,0 0.50397,-0.5039683 -0.62996,-0.3779761 0.377978,-0.3779761 0.886421,0 -0.178181,0.08909 0.755952,-0.3779763 0.112691,-0.056345 0.288885,0.08909 0.377976,0 0.08909,-0.08909 -0.08909,-0.2888861 0,-0.3779761 0.08909,-0.08909 0.251984,0 0.377976,0 0.125992,0 0.265287,-0.056345 0.377976,0 0.159369,0.079684 0.251983,0.2519841 0.377975,0.3779761 0.251987,0.2519841 0.54214,0.4708649 0.755955,0.7559524 0.169034,0.2253816 0.201982,0.5359609 0.377975,0.7559523 0.624496,0.780621 2.34632,2.194174 3.02381,2.645833 0.937643,0.625096 2.057495,0.932116 3.023809,1.511905 1.497869,0.898722 2.605682,1.869806 4.157739,2.645834 4.528796,2.264398 0.729168,0.135073 5.291666,1.88988 1.314741,0.50567 2.455937,1.40849 3.779761,1.889881 0.862013,0.313459 1.775666,0.465897 2.645833,0.755953 0.643671,0.214556 1.254594,0.517719 1.889882,0.755952 0.373055,0.139895 0.764003,0.230006 1.133928,0.377976 0.261577,0.104631 0.494376,0.273346 0.755954,0.377977 0.369924,0.14797 0.764003,0.230006 1.133927,0.377976 0.261578,0.10463 0.503968,0.251984 0.755952,0.377976 0.251984,0.125992 0.521541,0.221702 0.755954,0.377976 0.296508,0.197673 0.437213,0.596584 0.755952,0.755952 0.112691,0.05635 0.251984,0 0.377976,0 1.585065,0 1.39697,-0.598702 2.645833,-1.133928 0.477475,-0.204633 1.014336,-0.228705 1.511906,-0.377976 2.35418,-0.706255 2.527625,-0.867282 4.913685,-1.889881 0.88195,-0.377976 1.74101,-0.814579 2.64584,-1.133929 1.2404,-0.43779 2.54812,-0.672062 3.77976,-1.133929 0.79137,-0.296762 1.47191,-0.849663 2.26786,-1.133928 0.97843,-0.349439 2.03816,-0.427405 3.02381,-0.755952 0.91028,-0.303429 1.7422,-0.811205 2.64583,-1.133929 7.55878,-2.699564 -1.95274,1.231226 4.91369,-1.889881 0.61767,-0.28076 1.28302,-0.452523 1.88988,-0.755952 0.40631,-0.203156 0.74871,-0.515189 1.13393,-0.755953 0.62298,-0.389365 1.27861,-0.726416 1.88988,-1.133928 0.14825,-0.09884 0.20894,-0.321631 0.37798,-0.377976 0.002,-5.83e-4 1.13356,3.7e-4 1.13392,0 0.0891,-0.08909 -0.0563,-0.490667 0,-0.377976 1.61524,3.230478 -0.6824,-0.9132771 0.37798,2.267857 0.14365,0.430959 0.59645,0.708581 0.75595,1.133928 0.22558,0.601532 0.20894,1.270082 0.37798,1.889881 0.20966,0.768766 0.52161,1.506251 0.75595,2.267857 0.26975,0.876675 0.42668,1.789735 0.75595,2.645834 0.30341,0.788845 0.75596,1.511904 1.13393,2.267857 0.37798,1.007936 0.77187,2.010046 1.13393,3.023809 0.26801,0.750422 0.44947,1.53231 0.75595,2.267857 1.50399,3.609576 0.66301,0.948026 2.26786,4.157739 1.80675,3.613494 -1.08089,-1.063209 1.13393,1.889879 0.16903,0.225383 0.17877,0.556742 0.37798,0.755955 0.0891,0.08909 0.26528,-0.05635 0.37797,0 1.72985,0.864923 -1.60391,-0.156663 1.13393,0.755951 0.2449,0.08163 1.58043,0 1.88988,0 0.62996,0 1.25992,0 1.88988,0 0.37798,0 0.77535,0.119526 1.13393,0 0.43096,-0.143653 0.72762,-0.552796 1.13393,-0.755951 0.60686,-0.30343 1.28302,-0.452525 1.88988,-0.755955 1.99768,-0.998836 1.9575,-1.279133 3.77976,-2.645833 3.52556,-2.644169 1.52673,-1.20006 4.91369,-3.023809 2.9193,-1.571932 2.12033,-1.35659 4.91369,-2.645833 0.87121,-0.402097 1.78761,-0.704815 2.64584,-1.133929 0.65709,-0.328546 1.21174,-0.851369 1.88988,-1.133928 0.84668,-0.352783 1.79915,-0.403169 2.64583,-0.755952 0.67814,-0.28256 1.23279,-0.805382 1.88988,-1.133929 0.85823,-0.429113 1.77231,-0.736873 2.64583,-1.133928 0.51295,-0.233159 0.98876,-0.546691 1.51191,-0.755953 1.88988,-0.755952 1.88988,-0.566964 3.40179,-1.133929 1.80957,-0.67859 3.48209,-1.589265 5.29166,-2.267856 0.37306,-0.139896 0.74325,-0.29984 1.13393,-0.377977 0.24709,-0.04942 0.52199,0.09359 0.75595,0 0.42178,-0.168712 0.70297,-0.612299 1.13393,-0.755952 0.35858,-0.119527 0.76724,0.09167 1.13393,0 0.17286,-0.04322 0.21861,-0.298292 0.37798,-0.377976 0.11269,-0.05635 0.25198,0 0.37797,0 0.25199,0 0.50397,0 0.75595,0 0.30429,0 1.27467,-0.07908 1.51191,0 1.20151,0.400503 0.93863,0.941156 1.88988,1.511905 0.34165,0.204986 0.82281,0.129083 1.13393,0.377976 0.35472,0.28378 0.43473,0.81271 0.75595,1.133928 2.07401,2.074006 -1.03695,-2.585653 1.88988,1.511905 2.58669,3.621366 -0.86879,-0.33004 1.51191,2.645833 -0.0968,0.582861 1.26889,0.890915 1.5119,1.133929 0.19921,0.199211 0.17877,0.556741 0.37798,0.755952 0.0891,0.08909 0.25198,0 0.37797,0 0.75595,0 1.51191,0 2.26786,0 0.25198,0 0.51149,0.06112 0.75595,0 3.90058,-0.975143 0.91974,-0.270879 3.40179,-1.511904 0.85823,-0.429114 1.7876,-0.704816 2.64583,-1.133929 0.6571,-0.328547 1.23279,-0.805382 1.88988,-1.133929 2.80738,-1.40369 2.32958,-0.760458 4.91369,-2.267857 2.87941,-1.679656 1.36672,-1.195391 3.77977,-2.267857 6.53963,-2.615855 -1.50544,0.752715 3.02381,-1.511905 0.29521,-0.147609 1.55961,-0.425687 1.88987,-0.755952 0.0891,-0.08909 -0.0891,-0.288886 0,-0.377976 0.0891,-0.08909 0.25199,0 0.37798,0 0.126,0 0.28889,-0.08909 0.37798,0 0.0891,0.08909 0,0.251984 0,0.377976 0,0.881944 0,1.763889 0,2.645833 0,0.629961 -0.10357,1.268492 0,1.889881 0.15079,0.904756 0.6129,1.739822 0.75595,2.645834 0.23662,1.49858 0.18175,3.031312 0.37798,4.535714 0.97576,7.480811 0.82228,0.789687 1.13393,9.827382 0.0608,1.762839 0,3.527777 0,5.291666 0,5.417659 0,10.835317 0,16.252976 0,15.749008 0,31.498016 0,47.247021 0,1.13393 0,2.26786 0,3.40179 0,0.50397 0.0902,1.01606 0,1.5119 -0.16408,0.90244 -0.60516,1.74108 -0.75596,2.64583 -0.10356,0.62139 0.0696,1.26378 0,1.88989 -0.0574,0.5163 -0.32628,0.995 -0.37797,1.5119 -0.0752,0.7522 0.0835,1.51653 0,2.26786 -0.49751,4.47752 -0.37798,-2.09633 -0.37798,2.26785 0,0.50397 0,1.00794 0,1.51191 0,0.12599 0,0.25198 0,0.37798 0,0.12599 0.12599,0.37797 0,0.37797 -0.12599,0 0,-0.25198 0,-0.37797 0,-0.50397 0.15937,-1.0338 0,-1.51191 -0.11269,-0.33807 -0.59658,-0.43721 -0.75595,-0.75595 -0.23232,-0.46464 -0.16302,-1.03899 -0.37798,-1.51191 -0.42033,-0.92473 -1.12122,-1.70818 -1.5119,-2.64583 -0.24709,-0.59302 -0.25199,-1.25992 -0.37798,-1.88988 -0.25198,-0.75595 -0.43232,-1.53969 -0.75595,-2.26786 -0.67271,-1.51359 -0.65511,-0.74748 -1.51191,-1.88988 -1.74024,-2.32032 0.73968,0.7234 -0.37797,-1.5119 -0.12599,-0.25199 -0.59968,0.14356 -0.75595,0.37797 -0.40752,0.61127 -0.73952,1.27009 -1.13393,1.88988 -0.48778,0.76651 -1.05412,1.48308 -1.51191,2.26786 -0.51447,0.88195 -2.25386,4.7037 -2.64583,5.29167 -0.39535,0.59301 -1.00794,1.00793 -1.51191,1.5119 -0.50396,0.75595 -1.02413,1.50136 -1.5119,2.26786 -0.0286,0.0449 -2.26236,3.77335 -2.26786,3.77976 -0.29563,0.34491 -0.81271,0.43474 -1.13393,0.75595 -0.23658,0.23659 -1.0061,1.63699 -1.5119,1.88988 -0.0847,0.0424 -1.42209,0 -1.51191,0 -0.37797,0 -0.79585,0.16904 -1.13392,0 -0.47811,-0.23905 -0.71199,-0.80575 -1.13393,-1.13392 -0.71716,-0.55779 -1.47902,-1.06114 -2.26786,-1.51191 -1.95686,-1.1182 -4.09076,-1.9056 -6.04762,-3.02381 -0.78883,-0.45076 -1.49409,-1.03574 -2.26786,-1.5119 -0.72171,-0.44413 -3.94883,-2.29498 -4.91369,-2.64584 -0.60375,-0.21954 -1.27453,-0.19337 -1.88988,-0.37797 -0.64987,-0.19496 -1.25459,-0.51772 -1.88988,-0.75596 -0.37305,-0.13989 -0.76087,-0.23808 -1.13393,-0.37797 -0.63528,-0.23823 -1.23749,-0.56956 -1.88988,-0.75595 -0.24229,-0.0692 -0.50396,0 -0.75595,0 -0.25199,0 -0.50397,0 -0.75595,0 -1.38591,0 -2.77183,0 -4.15774,0 -1.21669,0 0.64525,-0.0891 -0.75595,0.37797 -0.23905,0.0797 -0.53057,-0.11269 -0.75596,0 -0.11269,0.0564 0.0891,0.28889 0,0.37798 -0.0891,0.0891 -0.28888,-0.0891 -0.37797,0 -0.0891,0.0891 0.0563,0.26529 0,0.37797 -0.0797,0.15937 -0.27914,0.22973 -0.37798,0.37798 -0.83274,0.19035 -0.19979,0.77757 -0.37797,1.13393 -0.0797,0.15937 -0.2983,0.21861 -0.37798,0.37798 -0.12599,0.37797 -0.25199,0.75595 -0.37798,1.13392 -0.12599,0.126 -0.29829,0.21861 -0.37797,0.37798 -0.0564,0.11269 0.0398,0.25845 0,0.37798 -0.0891,0.26727 -0.30965,0.48264 -0.37798,0.75595 -0.0611,0.24446 0.11269,0.53057 0,0.75595 -0.15937,0.31874 -0.55828,0.45944 -0.75595,0.75596 -0.0699,0.10483 0.0699,0.27314 0,0.37797 -0.19767,0.29651 -0.59659,0.43721 -0.75595,0.75595 -0.11269,0.22539 0.0797,0.5169 0,0.75595 -0.11269,0.33808 -0.59659,0.43722 -0.75596,0.75596 -0.11269,0.22538 0.17818,0.57777 0,0.75595 -0.0891,0.0891 -0.25198,0 -0.37797,0 -0.2909,0 -1.7649,0.0625 -1.88988,0 -0.31874,-0.15937 -0.52782,-0.48219 -0.75596,-0.75595 -2.06607,-2.47929 -0.34287,-0.62861 -2.26785,-4.15774 -0.30166,-0.55304 -0.80982,-0.97172 -1.13393,-1.51191 -0.43484,-0.72473 -0.75595,-1.5119 -1.13393,-2.26785 -0.25198,-0.50397 -0.38926,-1.0841 -0.75595,-1.51191 -0.40997,-0.4783 -1.06646,-0.68848 -1.51191,-1.13392 -0.32122,-0.32122 -0.40122,-0.85015 -0.75595,-1.13393 -0.31112,-0.2489 -0.79228,-0.17299 -1.13393,-0.37798 -0.30557,-0.18335 -0.43721,-0.59658 -0.75595,-0.75595 -0.22538,-0.11269 -0.50886,0.0494 -0.75595,0 -0.39069,-0.0781 -0.74093,-0.31248 -1.13393,-0.37798 -0.37284,-0.0621 -0.75595,0 -1.13393,0 -1.38591,0 -2.77183,0 -4.15774,0 -3.29184,0 -6.14042,-0.0733 -9.4494,0.37798 -4.62207,0.63028 -8.89434,2.08352 -13.22917,3.77976 -1.15556,0.45217 -2.2702,1.00269 -3.40178,1.5119 -3.31267,1.4907 -4.76461,2.11777 -7.9375,3.77977 -1.39845,0.73251 -2.76074,1.53259 -4.15774,2.26785 -0.99722,0.52486 -2.02786,0.98464 -3.02381,1.51191 -1.14642,0.60693 -2.25723,1.27945 -3.40179,1.88988 -1.56398,0.83412 -2.72611,1.24527 -4.157736,2.26786 -0.289981,0.20712 -0.437214,0.59658 -0.755952,0.75595 -0.225383,0.11269 -0.503968,0 -0.755952,0 -0.125991,0 -0.288887,-0.0891 -0.377975,0 -0.08909,0.0891 0.08909,0.28888 0,0.37798 -0.08909,0.0891 -0.251987,0 -0.377979,0 -0.125992,0 -0.273142,0.0699 -0.377976,0 -1.412565,-0.94172 -0.224125,-0.52518 -1.133927,-1.88989 -0.593019,-0.88952 -1.639057,-1.40325 -2.267857,-2.26785 -7.498684,-10.31069 2.311402,2.71115 -3.02381,-5.29167 -0.54584,-0.81876 -1.299464,-1.48063 -1.889881,-2.26786 -0.545124,-0.72683 -0.904121,-1.59254 -1.511904,-2.26786 -0.539683,-0.59964 -1.385913,-0.88194 -1.889881,-1.5119 -0.527982,-0.65998 -0.665107,-1.56462 -1.13393,-2.26786 -0.296508,-0.44476 -0.755952,-0.75595 -1.133928,-1.13393 -1.14554,-1.14553 -0.95228,-1.10053 -2.267857,-1.88988 -0.241578,-0.14494 -0.530572,-0.20894 -0.755952,-0.37797 -1.190178,-0.89263 -0.247383,-0.80543 -1.889881,-1.13393 -0.24709,-0.0494 -0.503968,0 -0.755952,0 -0.377976,0 -0.755952,0 -1.13393,0 -1.25992,0 -2.519842,0 -3.779761,0 -0.503968,0 -1.007935,0 -1.511906,0 -0.629959,0 -1.310854,-0.24815 -1.889879,0 -0.417541,0.17894 -0.434734,0.81271 -0.755954,1.13393 -0.695812,0.69581 -1.472036,1.3111 -2.267855,1.88988 -0.594143,0.4321 -1.288031,0.71263 -1.889882,1.13393 -1.177536,0.82427 -2.440426,1.94228 -3.401785,3.02381 -1.038137,1.1679 -1.753346,2.44893 -3.023811,3.40178 -0.450763,0.33807 -1.07192,0.40397 -1.511904,0.75595 -0.219993,0.176 -0.178765,0.55675 -0.377975,0.75596 -0.199213,0.19921 -0.514374,0.23303 -0.755955,0.37797 -0.389532,0.23372 -0.770511,0.48339 -1.133927,0.75596 -0.632645,0.47448 -0.646361,0.84541 -1.511906,1.13393 -0.226764,0.0756 -1.58827,0 -1.889879,0 -0.06373,0 -1.876219,0.0102 -1.889882,0 -0.0098,-0.007 -1.441278,-2.16898 -1.511905,-2.26786 -2.707304,-3.79023 0.57835,1.2011 -2.267855,-3.77977 -0.589714,-1.03199 -1.330537,-1.97503 -1.889882,-3.0238 -0.451543,-0.84664 -0.615058,-1.83871 -1.13393,-2.64584 -0.628137,-0.9771 -1.559624,-1.72513 -2.267855,-2.64583 -6.143376,-7.98639 3.187475,3.25518 -3.401787,-4.15774 -0.418524,-0.47084 -0.659834,-1.09707 -1.133928,-1.5119 -1.413412,-1.23674 -1.636612,-0.95703 -3.023809,-1.51191 -0.261578,-0.10463 -0.494377,-0.27334 -0.755954,-0.37798 -1.109377,-0.44374 -1.205365,-0.37797 -2.267855,-0.37797 -0.251987,0 -0.511493,-0.0611 -0.755954,0 -0.273315,0.0683 -0.503968,0.25198 -0.755952,0.37797 -2.514224,1.25712 -0.570475,0.17255 -3.023809,1.88989 -1.031163,0.72181 -4.079613,2.64353 -4.913691,3.40178 -0.596941,0.54268 -0.969231,1.29294 -1.511905,1.88988 -0.719139,0.79106 -1.548717,1.47681 -2.267857,2.26786 -4.724978,5.19748 1.411195,-1.29152 -2.645833,3.77976 -0.55654,0.69568 -1.293901,1.22768 -1.889881,1.88988 -0.511204,0.56801 -2.1165728,2.66083 -2.6458332,3.40179 -0.2640396,0.36966 -0.4721717,0.7792 -0.7559524,1.13393 -0.333924,0.4174 -0.8132053,0.7063 -1.1339287,1.13393 -0.2725624,0.36341 -0.4721715,0.7792 -0.7559522,1.13393 -0.025929,0.0324 -1.3153056,1.4136 -1.5119048,1.5119 -0.05881,0.0294 -1.1287214,0.0156 -1.1339286,0 -0.2423506,-0.72705 -0.2614426,-1.51039 -0.3779762,-2.26786 -0.1354675,-0.88054 -0.1739254,-1.77862 -0.3779762,-2.64583 -0.4998181,-2.12423 -1.27945108,-4.44879 -2.26785708,-6.4256 -0.58011102,-1.16022 -1.30976992,-2.24156 -1.88988092,-3.40178 -0.3034292,-0.60686 -0.4068731,-1.30809 -0.7559524,-1.88988 -0.4330761,-0.7218 -1.6079293,-2.29987 -2.6458333,-2.64584 -0.3585797,-0.11952 -0.7672377,0.0917 -1.1339285,0 -0.1728597,-0.0432 -0.2186075,-0.29829 -0.3779763,-0.37797 -0.1126906,-0.0563 -0.2519842,0 -0.3779761,0 -0.2519841,0 -0.5039683,0 -0.7559524,0 -0.2519841,0 -0.5039683,0 -0.7559524,0 -0.2519842,0 -0.5305708,-0.11269 -0.7559523,0 -0.318738,0.15937 -0.524037,0.48538 -0.755952,0.75595 -1.965312,2.29286 -1.101873,1.35354 -2.645834,3.77976 -0.990178,1.556 -1.804971,2.78655 -3.023809,4.15774 -0.473505,0.53269 -1.11656,0.91889 -1.511905,1.51191 -3.52276,5.28413 2.60146,-1.78518 -2.267857,3.77976 -0.351996,0.40228 -0.823234,0.69895 -1.133928,1.13392 -2.288303,3.20363 0.510819,0.24514 -1.511905,2.26786 -0.125992,0.12599 -0.298292,0.21861 -0.377977,0.37798 -0.05635,0.11269 -0.05635,0.49066 0,0.37798 0.17818,-0.35636 0.230006,-0.76401 0.377977,-1.13393 0.10463,-0.26158 0.30058,-0.48507 0.377976,-0.75596 0.233414,-0.81695 0.624108,-3.43259 0.755952,-4.15774 0.114923,-0.63207 0.272361,-1.25618 0.377977,-1.88987 0.272436,-1.63462 0.459509,-3.28326 0.755952,-4.9137 0.207791,-1.14285 0.611875,-2.24916 0.755952,-3.40178 0.234931,-1.87945 0.100402,-3.79602 0.377976,-5.66965 0.002,-0.0138 2.258524,-9.028488 2.267857,-9.071422 0.299236,-1.376485 0.429684,-2.78741 0.755953,-4.15774 0.304673,-1.279625 0.799169,-2.507675 1.133928,-3.77976 0.295617,-1.123344 0.486905,-2.271784 0.755953,-3.401785 1.481328,-6.221579 0.849945,-2.713821 1.889881,-8.693454 0.262624,-1.510091 0.586687,-3.012329 0.755952,-4.535713 0.486928,-4.382349 0.377976,-6.301983 0.377976,-10.583333 0,-4.409723 0,-8.819446 0,-13.229166 0,-1.007939 0,-2.015874 0,-3.023812 0,-1.25992 -0.06989,-2.521781 0,-3.779761 0.05635,-1.014217 0.310408,-2.010278 0.377976,-3.023809 0.05867,-0.879991 -0.08776,-1.768266 0,-2.645833 0.07929,-0.79289 0.599679,-1.486488 0.755953,-2.267858 0.04942,-0.247092 0,-0.503968 0,-0.755951 0,-0.629963 0,-1.259922 0,-1.889882 0,-0.251984 -0.06112,-0.511492 0,-0.755953 0.06833,-0.273315 0.322725,-0.479696 0.377976,-0.755952 0.07413,-0.370636 0,-0.755952 0,-1.133928 0,-1.259921 0,-2.519841 0,-3.779762 0,-1.133929 0,-2.267857 0,-3.401786 0,-0.437518 -0.08436,-1.55243 0,-1.889881 0.6169135,-2.467653 0.202962,1.42806 0.7559523,-1.889881 0.3593343,-2.156005 -0.5855303,-0.07648 0.3779763,-2.645833 0.7538665,-2.010311 0.8354042,-0.9341397 1.1339285,-3.0238096 0.053454,-0.3741772 0,-0.7559524 0,-1.1339285 0,-0.2519841 -0.061115,-0.511492 0,-0.7559524 0.068329,-0.2733151 0.2888864,-0.4886828 0.3779761,-0.7559524 0.079684,-0.2390532 -0.1781797,-0.5777727 0,-0.7559524 0.012155,-0.012155 1.0422593,0 1.1339287,0 0.7559524,0 1.5119046,0 2.267857,0 0.1259922,0 0.2519841,0 0.3779763,0 0.125992,0 0.2888864,-0.08909 0.3779761,0 0.08909,0.08909 -0.08909,0.2888864 0,0.3779763 0.08909,0.08909 0.269939,-0.064822 0.3779763,0 0.5401864,0.324112 1.0079364,0.7559524 1.5119047,1.1339285 z"
       id="path3680"
       inkscape:connector-curvature="0" />
    <path
       style="fill:#000000;stroke-width:1.42857146"
       d="m 361.71598,490.88929 c 0,-0.7625 -3.53571,-5.44049 -7.85714,-10.3955 -4.32143,-4.95503 -7.85714,-9.99006 -7.85714,-11.18894 0,-3.551 -20.11993,-31.00016 -23.7414,-32.38985 -1.15203,-0.44207 -3.29845,-3.1352 -4.76983,-5.98471 -2.78189,-5.38749 -10.04556,-12.71143 -18.63163,-18.78623 -4.58496,-3.24393 -6.52623,-3.57694 -23.38619,-4.01167 l -18.38618,-0.47409 -4.13006,5.01048 c -2.27153,2.75574 -6.53346,6.4613 -9.47096,8.23455 -8.33503,5.03153 -17.78971,13.28973 -22.48375,19.63845 -2.35715,3.18804 -6.375,6.93512 -8.92858,8.32685 -2.55357,1.39175 -4.64285,2.90335 -4.64285,3.35913 0,0.4558 -2.9562,2.91243 -6.56933,5.4592 -5.68197,4.00503 -7.56262,4.57283 -13.92292,4.20357 l -7.35358,-0.42691 -8.92264,-14.28572 c -4.90746,-7.85714 -10.57032,-17.75287 -12.58413,-21.9905 -3.61587,-7.6088 -5.74677,-10.44151 -23.0172,-30.59798 -7.67462,-8.95713 -9.95537,-10.67923 -17.85715,-13.48324 -4.98232,-1.76802 -10.2157,-3.21445 -11.62971,-3.21429 -7.203229,8.3e-4 -33.476743,19.06286 -47.202315,34.24634 -6.017562,6.65675 -10.941028,12.81255 -10.941028,13.67955 0,0.86701 -1.678576,3.13485 -3.730169,5.03968 -2.051593,1.90482 -6.66613,7.32044 -10.254527,12.03473 -9.08627,11.93716 -21.749498,26.42857 -23.094441,26.42857 -0.6177846,0 -1.5659931,-3.91337 -2.1071303,-8.6964 -0.5411371,-4.78301 -2.2907914,-12.92766 -3.88812,-18.09921 -3.67634142,-11.9026 -17.2534097,-38.81509 -21.6795557,-42.97323 -3.784081,-3.55496 -10.867179,-5.94544 -17.616584,-5.94544 -5.00928,0 -8.401816,3.57488 -18.301997,19.28571 -2.970708,4.71429 -8.251738,11.6386 -11.735623,15.38737 -3.483886,3.74879 -7.204004,8.89164 -8.266928,11.42857 -2.431265,5.80285 -9.324925,12.64779 -9.324925,9.25903 0,-2.98181 5.367988,-34.43214 7.13265,-41.78926 0.753839,-3.14285 1.385953,-9.45492 1.404698,-14.02682 0.01874,-4.5719 1.699099,-14.85762 3.734122,-22.85715 2.035024,-7.99953 5.243226,-21.61603 7.12934,-30.25888 1.886113,-8.64286 5.360866,-23.10715 7.721674,-32.14286 2.360809,-9.03571 5.971027,-25.42857 8.02271,-36.42857 3.554947,-19.05967 3.780053,-23.19039 4.787839,-87.85714 0.7414,-47.57349 1.574071,-69.12258 2.785628,-72.09054 0.969346,-2.37461 2.276059,-16.801388 2.976053,-32.857143 1.241383,-28.473537 2.934054,-42.386094 5.540833,-45.541685 0.751257,-0.909422 1.781914,-4.224922 2.290351,-7.367779 2.038063,-12.598109 1.727678,-12.143659 8.287033,-12.133444 3.626839,0.0056 7.758276,1.144593 10.329926,2.84773 2.3571428,1.561074 5.3498914,2.842552 6.6505514,2.847729 1.3006614,0.0052 4.9954043,2.20719 8.2105415,4.89336 3.2151371,2.686171 9.2223881,5.989349 13.3494481,7.340398 4.12706,1.351047 10.71803,4.068968 14.646602,6.039823 3.928571,1.970855 13.571428,6.30555 21.428571,9.632655 7.857143,3.327106 21.678572,9.260438 30.714286,13.185183 9.035714,3.924745 23.178576,9.853266 31.428576,13.17449 8.25,3.321225 17.1111,6.936482 19.69132,8.033905 6.63909,2.823737 24.59439,2.716022 24.59439,-0.147543 0,-1.178572 0.98597,-2.142857 2.19104,-2.142857 1.20506,0 3.51856,-2.25 5.1411,-5 1.62255,-2.75 3.69015,-5.027316 4.59469,-5.060702 0.90453,-0.03339 6.1446,-2.921353 11.6446,-6.417703 5.5,-3.496351 13.05357,-7.979865 16.78571,-9.963364 3.73215,-1.9835 6.78572,-4.230326 6.78572,-4.992947 0,-1.608572 9.29687,-7.791643 18.56157,-12.344737 l 6.41871,-3.15445 6.67532,7.48953 c 3.9052,4.381543 10.43037,9.485435 15.72414,12.299195 4.97686,2.645318 12.33461,6.90498 16.35056,9.46592 4.01595,2.560939 11.73024,6.059962 17.14285,7.775605 5.41263,1.715643 11.84248,4.322468 14.28856,5.792944 2.44607,1.470477 9.5175,4.322233 15.71429,6.337234 6.19677,2.015003 15.87734,5.874067 21.51238,8.5757 5.63505,2.701633 10.94095,4.91206 11.79089,4.91206 0.84996,0 3.94423,-1.285714 6.87618,-2.857143 2.93195,-1.571428 6.18029,-2.857142 7.21855,-2.857142 1.03824,0 7.47634,-2.331136 14.30687,-5.180302 11.89321,-4.960933 20.45668,-8.129711 42.41913,-15.696536 23.93117,-8.245122 40.1802,-15.094278 49.7144,-20.955214 3.77148,-2.318438 7.00484,-3.97968 7.18521,-3.691646 1.95147,3.116112 5.56204,13.006466 8.79614,24.095126 2.17703,7.464286 5.24986,16.13053 6.8285,19.25832 1.57865,3.12779 4.30962,9.918776 6.06883,15.09108 3.76917,11.08181 13.85165,29.59486 18.05432,33.1506 2.22591,1.88327 5.52995,2.5 13.39348,2.5 12.3852,0 19.80532,-3.14351 36.17117,-15.32383 9.56048,-7.11539 55.86262,-31.819027 59.63856,-31.819027 0.87394,0 7.99792,-3.173526 15.83103,-7.05228 7.83311,-3.878754 16.1235,-7.51196 18.42306,-8.07379 2.29955,-0.561829 9.83485,-3.495446 16.7451,-6.519147 6.91024,-3.023703 13.69238,-5.49764 15.07143,-5.49764 1.37904,0 3.12671,-0.61937 3.88371,-1.376377 0.75701,-0.757009 5.03146,-1.80596 9.49876,-2.331003 8.8429,-1.03931 7.17234,-1.859366 23.02891,11.304566 3.01152,2.500118 6.73632,7.187551 8.27733,10.416514 1.54101,3.228964 4.38063,6.590183 6.31024,7.469374 1.92962,0.879192 3.50839,2.339709 3.50839,3.245594 0,2.272609 20.59131,0.887459 23.57117,-1.585598 1.23536,-1.025259 12.02651,-6.786827 23.98033,-12.803484 11.95381,-6.016658 24.30564,-12.314423 27.4485,-13.995036 7.69466,-4.114642 20.51338,-10.34455 21.28506,-10.34455 0.34284,0 0.9296,4.339286 1.30392,9.642857 0.79906,11.321667 4.58805,40.374507 6.7441,51.711827 1.0187,5.3567 1.34306,55.46017 0.99928,154.3596 -0.42853,123.27782 -0.86576,149.09554 -2.76545,163.29714 -2.04043,15.25366 -3.98385,22.95859 -4.0028,15.86953 -0.004,-1.50595 -1.59111,-5.30953 -3.52684,-8.45238 -1.93574,-3.14286 -3.54317,-6.67857 -3.57209,-7.85715 -0.119,-4.85445 -3.214,-13.01851 -6.34655,-16.74135 -1.83866,-2.18512 -3.5818,-5.20537 -3.87367,-6.71169 -0.29188,-1.50633 -1.2515,-2.97874 -2.13252,-3.27206 -1.7356,-0.5778 -11.2163,14.09448 -19.8073,30.65368 -2.95533,5.69642 -5.87466,10.35714 -6.4874,10.35714 -0.61273,0 -4.49377,5.30357 -8.62454,11.78571 -13.9321,21.86273 -22.26523,27.43685 -30.07553,20.11779 -2.0567,-1.92736 -10.73527,-7.22323 -19.28571,-11.76863 -8.55043,-4.54539 -20.6891,-11.27617 -26.97482,-14.9573 -6.28571,-3.68113 -13.03571,-7.05773 -15,-7.50357 -1.96428,-0.44584 -8.82871,-2.74417 -15.25427,-5.10742 -10.32599,-3.79775 -13.11457,-4.2378 -24.01029,-3.78882 -14.25887,0.58754 -14.96527,1.1309 -20.69374,15.91712 -1.8914,4.8821 -4.46557,10.48369 -5.72037,12.44798 -1.25479,1.96428 -3.17047,5.33928 -4.25707,7.5 -1.42643,2.83648 -3.05423,3.92857 -5.85564,3.92857 -4.75078,0 -7.55463,-3.99373 -20.3821,-29.03165 -3.49966,-6.83098 -13.32738,-18.04097 -15.85689,-18.08717 -0.72384,-0.0128 -2.56254,-1.14904 -4.086,-2.52404 -2.45456,-2.21537 -6.04559,-2.48676 -31.54106,-2.38364 -39.97444,0.16167 -57.29181,4.02973 -96.62828,21.5832 -17.89596,7.98588 -72.84412,36.3454 -83.57143,43.1324 -6.1095,3.86538 -12.14286,5.43803 -12.14286,3.16514 z"
       id="path3682"
       inkscape:connector-curvature="0"
       transform="scale(0.26458333)" />
  </g>
</svg>
